<?xml version="1.0" encoding="utf-8"?>
<!-- Generator: Adobe Illustrator 16.0.2, SVG Export Plug-In . SVG Version: 6.00 Build 0)  -->
<!DOCTYPE svg PUBLIC "-//W3C//DTD SVG 1.1//EN" "http://www.w3.org/Graphics/SVG/1.1/DTD/svg11.dtd">
<svg version="1.1" id="Слой_1" xmlns="http://www.w3.org/2000/svg" xmlns:xlink="http://www.w3.org/1999/xlink" x="0px" y="0px"
	 width="244px" height="54px" viewBox="0 0 244 54" enable-background="new 0 0 244 54" xml:space="preserve">
<path fill="#3A99FF" d="M16.22,11.382C19.271,8.379,19.223,3.729,15.3,0c6.344,0.727,18.017,2.712,25.474,12.543
	c0.243,0.339,0.485,0.727,0.679,1.065c-1.017-0.775-2.083-1.453-3.197-1.985C31.283,7.943,23.048,8.04,16.22,11.382L16.22,11.382z
	 M37.869,6.635c4.117,1.308,8.135-0.92,9.637-6.103c2.326,5.957,6.006,17.193,0.775,28.38c-0.194,0.388-0.387,0.727-0.628,1.113
	c0.241-1.258,0.339-2.518,0.289-3.775C47.894,18.355,44.067,11.091,37.869,6.635L37.869,6.635z M51.865,21.939
	c1.115,4.165,5.134,6.441,10.316,4.891c-3.778,5.133-11.38,14.238-23.585,15.789c-0.437,0.048-0.872,0.048-1.259,0.048
	c1.162-0.483,2.276-1.065,3.341-1.79C47.313,36.662,51.333,29.542,51.865,21.939L51.865,21.939z M45.763,42.521
	c-3.051,3.004-3.003,7.651,0.92,11.383c-6.343-0.729-18.016-2.713-25.474-12.545c-0.242-0.34-0.484-0.727-0.678-1.064
	c1.017,0.773,2.083,1.453,3.197,1.986C30.701,45.914,38.934,45.864,45.763,42.521L45.763,42.521z M24.889,47.511
	c-4.165-1.114-8.136,1.212-9.396,6.489c-2.568-5.859-6.635-16.951-1.889-28.332c0.193-0.387,0.387-0.774,0.581-1.114
	c-0.194,1.259-0.243,2.518-0.145,3.778C14.428,36.178,18.544,43.297,24.889,47.511L24.889,47.511z M10.118,31.916
	c-1.113-4.165-5.133-6.441-10.315-4.892c3.778-5.134,11.381-14.238,23.585-15.789c0.436-0.048,0.872-0.048,1.26-0.048
	c-1.163,0.484-2.277,1.065-3.342,1.792C14.67,17.193,10.65,24.361,10.118,31.916L10.118,31.916z"/>
<path d="M69.596,35.948v4.032c0,1.52-0.028,2.77-0.114,4.047l0.028,0.015c0.483-0.994,1.08-2.03,1.775-3.166l3.096-4.928h1.235
	v9.569h-1.165v-4.074c0-1.549,0.015-2.687,0.114-3.893l-0.042-0.014c-0.469,1.051-1.122,2.156-1.775,3.223l-2.996,4.758h-1.321
	v-9.569H69.596z M78.938,38.646v2.769h3.266v-2.769h1.235v6.871h-1.235v-3.108h-3.266v3.108h-1.235v-6.871H78.938z M86.689,38.646
	v2.769h3.266v-2.769h1.235v6.871h-1.235v-3.108h-3.266v3.108h-1.235v-6.871H86.689z M99.452,42.025c0,2.541-1.761,3.647-3.422,3.647
	c-1.86,0-3.294-1.362-3.294-3.534c0-2.302,1.505-3.649,3.408-3.649C98.117,38.489,99.452,39.924,99.452,42.025z M94,42.096
	c0,1.506,0.866,2.644,2.087,2.644c1.193,0,2.087-1.122,2.087-2.671c0-1.164-0.583-2.642-2.059-2.642
	C94.639,39.427,94,40.79,94,42.096z M100.999,38.73c0.483-0.084,1.377-0.155,2.187-0.155c1.149,0,3.053,0.184,3.053,1.718
	c0,0.854-0.653,1.378-1.435,1.548v0.029c1.008,0.141,1.747,0.709,1.747,1.703c0,1.803-2.272,2.03-3.621,2.03
	c-0.767,0-1.562-0.059-1.931-0.086V38.73z M102.177,44.695c0.355,0.041,0.611,0.057,1.009,0.057c0.837,0,2.087-0.199,2.087-1.193
	s-0.994-1.207-2.187-1.207h-0.909V44.695z M102.191,41.527h0.937c0.923,0,1.875-0.271,1.875-1.078c0-0.682-0.597-1.008-1.846-1.008
	c-0.412,0-0.667,0.026-0.965,0.057L102.191,41.527L102.191,41.527z M111.931,45.52l-0.099-0.867h-0.043
	c-0.383,0.541-1.122,1.022-2.102,1.022c-1.392,0-2.102-0.979-2.102-1.974c0-1.662,1.477-2.57,4.132-2.557v-0.144
	c0-0.565-0.156-1.59-1.562-1.59c-0.639,0-1.306,0.196-1.789,0.511l-0.284-0.822c0.568-0.369,1.392-0.61,2.258-0.61
	c2.101,0,2.612,1.435,2.612,2.812v2.57c0,0.597,0.028,1.179,0.114,1.646h-1.135V45.52z M111.747,42.011
	c-1.363-0.028-2.911,0.214-2.911,1.548c0,0.812,0.54,1.193,1.179,1.193c0.895,0,1.462-0.568,1.661-1.15
	c0.042-0.127,0.071-0.271,0.071-0.396V42.011z M116.175,38.646v5.893h3.167v-5.893h1.235v5.935l0.71,0.015l-0.071,3.11h-0.966
	l-0.057-2.188h-5.253v-6.871H116.175L116.175,38.646z M123.927,38.646v2.896c0,1.095-0.015,1.774-0.071,2.755l0.043,0.016
	c0.412-0.838,0.652-1.319,1.106-2.114l2.146-3.552h1.461v6.873h-1.189v-2.912c0-1.121,0.028-1.703,0.085-2.812h-0.043
	c-0.438,0.881-0.737,1.435-1.137,2.13c-0.652,1.065-1.405,2.387-2.146,3.594h-1.435v-6.873H123.927L123.927,38.646z M136.861,42.025
	c0,2.541-1.762,3.647-3.424,3.647c-1.859,0-3.295-1.362-3.295-3.534c0-2.302,1.506-3.649,3.408-3.649
	C135.525,38.489,136.861,39.924,136.861,42.025z M131.408,42.096c0,1.506,0.865,2.644,2.087,2.644c1.192,0,2.088-1.122,2.088-2.671
	c0-1.164-0.583-2.642-2.06-2.642C132.046,39.427,131.408,40.79,131.408,42.096z M139.643,38.646v2.769h3.267v-2.769h1.233v6.871
	h-1.233v-3.108h-3.267v3.108h-1.234v-6.871H139.643z M147.395,38.646v2.769h3.267v-2.769h1.233v6.871h-1.233v-3.108h-3.267v3.108
	h-1.235v-6.871H147.395z M155.145,38.646v2.342c0.271-0.057,0.666-0.084,1.121-0.084c1.479,0,2.969,0.609,2.969,2.3
	c0,0.726-0.271,1.222-0.711,1.59c-0.752,0.64-1.859,0.795-2.77,0.795c-0.695,0-1.334-0.042-1.846-0.099v-6.844H155.145z
	 M155.145,44.652c0.24,0.027,0.512,0.057,0.865,0.057c0.952,0,1.988-0.396,1.988-1.463c0-1.105-0.994-1.448-1.932-1.448
	c-0.354,0-0.668,0.028-0.922,0.072V44.652L155.145,44.652z M161.335,38.646v6.871H160.1v-6.871H161.335z M164.073,42.311
	c0.028,1.688,1.105,2.385,2.355,2.385c0.896,0,1.435-0.154,1.901-0.354l0.214,0.896c-0.438,0.199-1.19,0.427-2.286,0.427
	c-2.113,0-3.38-1.394-3.38-3.465c0-2.073,1.224-3.707,3.226-3.707c2.241,0,2.84,1.975,2.84,3.237c0,0.256-0.028,0.455-0.043,0.582
	h-4.827V42.311z M167.736,41.415c0.015-0.795-0.326-2.03-1.732-2.03c-1.264,0-1.816,1.163-1.916,2.03H167.736z M173.5,40.891
	c0-0.882-0.027-1.592-0.057-2.244h1.121l0.058,1.181h0.028c0.511-0.841,1.318-1.336,2.44-1.336c1.661,0,2.91,1.405,2.91,3.491
	c0,2.474-1.505,3.692-3.123,3.692c-0.909,0-1.704-0.397-2.116-1.079h-0.025v3.734H173.5V40.891z M174.736,42.723
	c0,0.186,0.025,0.354,0.056,0.51c0.228,0.867,0.979,1.463,1.874,1.463c1.32,0,2.088-1.078,2.088-2.654
	c0-1.377-0.725-2.557-2.045-2.557c-0.852,0-1.646,0.611-1.889,1.549c-0.043,0.154-0.084,0.342-0.084,0.511V42.723z M185.382,45.52
	l-0.099-0.867h-0.043c-0.385,0.541-1.121,1.022-2.103,1.022c-1.393,0-2.103-0.979-2.103-1.974c0-1.662,1.478-2.57,4.133-2.557
	v-0.144c0-0.565-0.156-1.59-1.563-1.59c-0.64,0-1.308,0.196-1.789,0.511l-0.283-0.822c0.566-0.369,1.392-0.61,2.258-0.61
	c2.104,0,2.611,1.435,2.611,2.812v2.57c0,0.597,0.029,1.179,0.115,1.646h-1.137L185.382,45.52L185.382,45.52z M185.198,42.011
	c-1.364-0.028-2.911,0.214-2.911,1.548c0,0.812,0.539,1.193,1.179,1.193c0.894,0,1.463-0.568,1.66-1.15
	c0.044-0.127,0.072-0.271,0.072-0.396V42.011z M188.988,41.527h0.596c1.051,0,1.761-0.482,1.761-1.12
	c0-0.611-0.554-0.994-1.334-0.994c-0.554,0-1.18,0.185-1.661,0.481l-0.313-0.768c0.695-0.426,1.49-0.625,2.286-0.625
	c1.051,0,2.327,0.471,2.327,1.805c0,0.853-0.779,1.404-1.547,1.563v0.027c1.021,0.084,1.873,0.709,1.873,1.718
	c0,1.491-1.52,2.046-2.967,2.046c-0.81,0-1.619-0.213-2.229-0.555l0.326-0.838c0.496,0.271,1.164,0.469,1.815,0.469
	c1.036,0,1.689-0.497,1.689-1.18c0-0.923-0.968-1.179-2.003-1.179h-0.625v-0.853h0.004V41.527z M194.538,40.891
	c0-0.882-0.028-1.592-0.058-2.244h1.123l0.058,1.181h0.028c0.511-0.841,1.318-1.336,2.44-1.336c1.661,0,2.91,1.405,2.91,3.491
	c0,2.474-1.505,3.692-3.123,3.692c-0.909,0-1.704-0.397-2.117-1.079h-0.026v3.734h-1.235V40.891z M195.773,42.723
	c0,0.186,0.026,0.354,0.057,0.51c0.229,0.867,0.98,1.463,1.875,1.463c1.32,0,2.088-1.078,2.088-2.654
	c0-1.377-0.725-2.557-2.045-2.557c-0.852,0-1.646,0.611-1.889,1.549c-0.043,0.154-0.086,0.342-0.086,0.511V42.723z M206.422,45.52
	l-0.099-0.867h-0.043c-0.384,0.541-1.122,1.022-2.104,1.022c-1.392,0-2.102-0.979-2.102-1.974c0-1.662,1.477-2.57,4.132-2.557
	v-0.144c0-0.565-0.155-1.59-1.563-1.59c-0.64,0-1.308,0.196-1.789,0.511l-0.283-0.822c0.566-0.369,1.391-0.61,2.258-0.61
	c2.104,0,2.611,1.435,2.611,2.812v2.57c0,0.597,0.027,1.179,0.113,1.646h-1.135v0.002H206.422z M206.238,42.011
	c-1.364-0.028-2.911,0.214-2.911,1.548c0,0.812,0.539,1.193,1.179,1.193c0.895,0,1.462-0.568,1.66-1.15
	c0.043-0.127,0.072-0.271,0.072-0.396V42.011z M214.656,36.316c-0.354,0.127-0.979,0.242-1.434,0.313
	c-1.107,0.171-1.92,0.539-2.443,1.292c-0.439,0.625-0.694,1.55-0.752,2.271h0.043c0.438-0.993,1.404-1.547,2.386-1.547
	c1.688,0,2.924,1.207,2.924,3.394c0,2.244-1.163,3.636-3.18,3.636c-2.414,0-3.21-2.314-3.21-4.602c0-1.563,0.328-2.84,1.066-3.805
	c0.666-0.953,1.616-1.394,2.95-1.621c0.556-0.084,1.236-0.196,1.705-0.367L214.656,36.316z M212.2,39.568
	c-0.738,0-1.265,0.384-1.548,0.938c-0.229,0.412-0.342,0.909-0.342,1.463c0,1.137,0.555,2.771,1.918,2.771
	c1.377,0,1.888-1.335,1.888-2.599C214.116,41.018,213.677,39.568,212.2,39.568z M223.175,42.025c0,2.541-1.762,3.647-3.422,3.647
	c-1.86,0-3.295-1.362-3.295-3.534c0-2.302,1.505-3.649,3.408-3.649C221.84,38.489,223.175,39.924,223.175,42.025z M217.723,42.096
	c0,1.506,0.865,2.644,2.088,2.644c1.191,0,2.086-1.122,2.086-2.671c0-1.164-0.582-2.642-2.059-2.642
	C218.359,39.427,217.723,40.79,217.723,42.096z M229.277,38.646v0.992h-2.145v5.879h-1.234v-5.877h-2.146v-0.994H229.277
	L229.277,38.646z M231.605,38.646v2.979h0.299l2.584-2.979h1.52l-2.996,3.107c1.107,0.114,1.775,0.854,2.314,2.087
	c0.186,0.454,0.426,1.122,0.738,1.677h-1.308c-0.185-0.297-0.427-0.838-0.64-1.406c-0.471-1.106-1.107-1.617-2.271-1.617h-0.242
	v3.023h-1.234v-6.871H231.605z M238.322,38.646v2.896c0,1.095-0.016,1.774-0.072,2.755l0.043,0.016
	c0.412-0.838,0.653-1.319,1.107-2.114l2.145-3.552h1.462v6.873h-1.192v-2.912c0-1.121,0.029-1.703,0.086-2.812h-0.043
	c-0.438,0.881-0.736,1.435-1.137,2.13c-0.652,1.065-1.404,2.387-2.144,3.594h-1.435v-6.873H238.322L238.322,38.646z"/>
<path fill="#3A99FF" d="M80.542,12.186l-2.552,2.729c-1.324-0.792-2.292-1.144-2.909-1.144c-0.44,0-0.879,0.175-1.145,0.528
	c-0.353,0.355-0.528,0.705-0.528,1.233c0,0.968,0.881,1.765,2.553,2.38c1.236,0.528,2.206,0.969,2.82,1.41
	c0.617,0.441,1.146,1.059,1.585,1.764c0.442,0.796,0.615,1.586,0.615,2.469c0,1.583-0.615,2.996-1.938,4.227
	c-1.32,1.232-2.818,1.762-4.67,1.762c-1.938,0-3.876-0.877-5.814-2.732l2.644-3.083c1.233,1.234,2.291,1.852,3.349,1.852
	c0.529,0,0.969-0.178,1.41-0.617c0.442-0.439,0.705-0.881,0.705-1.322c0-0.968-1.059-1.849-3.087-2.645
	c-1.143-0.438-2.026-0.881-2.552-1.234c-0.528-0.354-0.97-0.969-1.234-1.673c-0.354-0.705-0.53-1.499-0.53-2.205
	c0-1.676,0.53-2.997,1.676-4.052c1.057-1.059,2.553-1.583,4.317-1.583C77.371,10.246,79.043,10.863,80.542,12.186L80.542,12.186z
	 M83.273,19.94L83.273,19.94c0-2.819,0.883-5.113,2.732-6.874c1.851-1.849,4.053-2.732,6.521-2.732c2.82,0,5.111,0.883,6.962,2.732
	c1.85,1.849,2.731,4.141,2.731,6.874c0,2.732-0.881,5.023-2.731,6.875c-1.851,1.853-4.056,2.73-6.874,2.73
	c-2.732,0-5.022-0.877-6.785-2.73C84.156,25.051,83.273,22.673,83.273,19.94L83.273,19.94z M92.791,14.036L92.791,14.036
	c-1.587,0-2.819,0.528-3.79,1.675c-0.969,1.147-1.498,2.554-1.498,4.319c0,1.674,0.529,3.084,1.498,4.141
	c0.968,1.147,2.203,1.676,3.704,1.676c1.582,0,2.817-0.529,3.876-1.676c0.97-1.057,1.498-2.554,1.498-4.319
	c0-1.76-0.44-3.17-1.41-4.228C95.698,14.653,94.377,14.036,92.791,14.036L92.791,14.036z M105.744,10.513L105.744,10.513h4.052
	v14.802h5.554v4.055h-9.606V10.513L105.744,10.513z M124.777,10.513L124.777,10.513h3.172l7.667,18.856h-4.054l-1.499-3.701h-7.226
	l-1.5,3.701h-4.051L124.777,10.513L124.777,10.513z M126.363,16.68L126.363,16.68l-2.202,5.551h4.493L126.363,16.68L126.363,16.68z
	 M138.435,10.513L138.435,10.513h6.257c1.851,0,3.35,0.526,4.496,1.498c1.056,0.968,1.672,2.379,1.672,4.052
	c0,0.968-0.264,1.94-0.793,3c-0.531,1.057-1.41,1.849-2.819,2.466l5.286,7.845h-4.671l-4.935-7.317h-0.442v7.317h-4.054
	L138.435,10.513L138.435,10.513z M142.488,13.859L142.488,13.859v4.937h0.881c2.115,0,3.259-0.881,3.259-2.556
	c0-0.705-0.263-1.233-0.877-1.675c-0.53-0.44-1.324-0.616-2.292-0.616h-0.971V13.859z M170.778,14.564L170.778,14.564l-2.733,2.556
	c-0.529-0.969-1.234-1.673-2.115-2.201c-0.792-0.53-1.673-0.705-2.645-0.705c-1.496,0-2.73,0.528-3.877,1.673
	c-1.057,1.147-1.674,2.467-1.674,3.964c0,1.589,0.53,3,1.674,4.144c1.059,1.144,2.381,1.673,3.968,1.673
	c0.795,0,1.673-0.175,2.378-0.614c0.797-0.442,1.41-1.234,1.85-2.379h-4.494v-3.704h8.725v2.47c0,1.234-0.439,2.642-1.322,4.052
	c-0.881,1.41-2.027,2.466-3.436,3.171c-1.41,0.705-2.819,0.969-4.23,0.969c-2.645,0-4.76-0.969-6.609-2.818
	c-1.761-1.848-2.645-4.227-2.645-6.963c0-2.642,0.881-4.845,2.732-6.784c1.85-1.847,4.056-2.819,6.698-2.819
	C166.372,10.246,168.926,11.656,170.778,14.564L170.778,14.564z M174.918,10.513L174.918,10.513h6.255
	c1.853,0,3.35,0.526,4.497,1.498c1.056,0.968,1.672,2.379,1.672,4.052c0,0.968-0.266,1.94-0.795,3
	c-0.527,1.057-1.409,1.849-2.817,2.466l5.287,7.845h-4.673l-4.936-7.317h-0.438v7.317h-4.056L174.918,10.513L174.918,10.513z
	 M178.974,13.859L178.974,13.859v4.937h0.879c2.112,0,3.259-0.881,3.259-2.556c0-0.705-0.263-1.233-0.879-1.675
	c-0.531-0.44-1.322-0.616-2.291-0.616h-0.968V13.859L178.974,13.859z M190.251,19.94L190.251,19.94c0-2.819,0.877-5.113,2.729-6.874
	c1.854-1.849,4.056-2.732,6.521-2.732c2.821,0,5.111,0.883,6.965,2.732c1.846,1.849,2.728,4.141,2.728,6.874
	c0,2.732-0.88,5.023-2.728,6.875c-1.854,1.853-4.057,2.73-6.877,2.73c-2.732,0-5.021-0.877-6.784-2.73
	C191.219,25.051,190.251,22.673,190.251,19.94L190.251,19.94z M199.768,14.036L199.768,14.036c-1.588,0-2.818,0.528-3.791,1.675
	c-0.968,1.145-1.495,2.554-1.495,4.319c0,1.674,0.527,3.084,1.495,4.141c0.973,1.147,2.203,1.676,3.704,1.676
	c1.583,0,2.817-0.529,3.88-1.676c0.969-1.057,1.498-2.554,1.498-4.319c0-1.76-0.441-3.17-1.41-4.228
	C202.674,14.653,201.354,14.036,199.768,14.036L199.768,14.036z M212.634,10.513L212.634,10.513h3.966v11.543
	c0,1.059,0.267,1.936,0.878,2.554c0.618,0.617,1.409,0.967,2.378,0.967c1.147,0,1.94-0.35,2.559-0.967
	c0.615-0.618,0.881-1.586,0.881-2.73V10.513h3.967v12.245c0,1.063-0.267,2.203-0.795,3.35c-0.527,1.145-1.412,2.028-2.556,2.643
	c-1.146,0.617-2.466,0.879-3.877,0.879c-2.554,0-4.49-0.704-5.641-2.202c-1.234-1.41-1.763-2.997-1.763-4.582V10.51h0.003V10.513z
	 M231.4,10.513L231.4,10.513h6.434c1.762,0,3.172,0.526,4.229,1.498c1.055,0.968,1.585,2.379,1.585,3.966
	c0,1.061-0.266,2.115-0.797,3.085c-0.528,0.968-1.322,1.674-2.378,2.204c-1.06,0.439-1.937,0.705-2.733,0.705l-2.378,0.088v7.227
	h-4.052V10.513H231.4z M235.453,13.859L235.453,13.859v4.848h1.586c0.705,0,1.235-0.265,1.764-0.705
	c0.439-0.53,0.703-1.059,0.703-1.762c0-0.793-0.264-1.321-0.794-1.764c-0.528-0.44-1.322-0.617-2.29-0.617H235.453L235.453,13.859z"
	/>
</svg>
