<?xml version="1.0" encoding="UTF-8" standalone="no"?>
<!-- Generator: Adobe Illustrator 16.0.2, SVG Export Plug-In . SVG Version: 6.00 Build 0)  -->

<svg
   xmlns:dc="http://purl.org/dc/elements/1.1/"
   xmlns:cc="http://creativecommons.org/ns#"
   xmlns:rdf="http://www.w3.org/1999/02/22-rdf-syntax-ns#"
   xmlns:svg="http://www.w3.org/2000/svg"
   xmlns="http://www.w3.org/2000/svg"
   xmlns:sodipodi="http://sodipodi.sourceforge.net/DTD/sodipodi-0.dtd"
   xmlns:inkscape="http://www.inkscape.org/namespaces/inkscape"
   version="1.1"
   id="Слой_1"
   x="0px"
   y="0px"
   width="244px"
   height="54px"
   viewBox="0 0 244 54"
   enable-background="new 0 0 244 54"
   xml:space="preserve"
   sodipodi:docname="lolo-remake.svg"
   inkscape:version="0.92.1 r15371"><metadata
     id="metadata3691"><rdf:RDF><cc:Work
         rdf:about=""><dc:format>image/svg+xml</dc:format><dc:type
           rdf:resource="http://purl.org/dc/dcmitype/StillImage" /><dc:title></dc:title></cc:Work></rdf:RDF></metadata><defs
     id="defs3689" /><sodipodi:namedview
     pagecolor="#ffffff"
     bordercolor="#666666"
     borderopacity="1"
     objecttolerance="10"
     gridtolerance="10"
     guidetolerance="10"
     inkscape:pageopacity="0"
     inkscape:pageshadow="2"
     inkscape:window-width="1440"
     inkscape:window-height="847"
     id="namedview3687"
     showgrid="false"
     inkscape:zoom="5.2663934"
     inkscape:cx="122"
     inkscape:cy="27"
     inkscape:window-x="-8"
     inkscape:window-y="22"
     inkscape:window-maximized="1"
     inkscape:current-layer="Слой_1" /><path
     fill="#3A99FF"
     d="M16.22,11.382C19.271,8.379,19.223,3.729,15.3,0c6.344,0.727,18.017,2.712,25.474,12.543  c0.243,0.339,0.485,0.727,0.679,1.065c-1.017-0.775-2.083-1.453-3.197-1.985C31.283,7.943,23.048,8.04,16.22,11.382L16.22,11.382z   M37.869,6.635c4.117,1.308,8.135-0.92,9.637-6.103c2.326,5.957,6.006,17.193,0.775,28.38c-0.194,0.388-0.387,0.727-0.628,1.113  c0.241-1.258,0.339-2.518,0.289-3.775C47.894,18.355,44.067,11.091,37.869,6.635L37.869,6.635z M51.865,21.939  c1.115,4.165,5.134,6.441,10.316,4.891c-3.778,5.133-11.38,14.238-23.585,15.789c-0.437,0.048-0.872,0.048-1.259,0.048  c1.162-0.483,2.276-1.065,3.341-1.79C47.313,36.662,51.333,29.542,51.865,21.939L51.865,21.939z M45.763,42.521  c-3.051,3.004-3.003,7.651,0.92,11.383c-6.343-0.729-18.016-2.713-25.474-12.545c-0.242-0.34-0.484-0.727-0.678-1.064  c1.017,0.773,2.083,1.453,3.197,1.986C30.701,45.914,38.934,45.864,45.763,42.521L45.763,42.521z M24.889,47.511  c-4.165-1.114-8.136,1.212-9.396,6.489c-2.568-5.859-6.635-16.951-1.889-28.332c0.193-0.387,0.387-0.774,0.581-1.114  c-0.194,1.259-0.243,2.518-0.145,3.778C14.428,36.178,18.544,43.297,24.889,47.511L24.889,47.511z M10.118,31.916  c-1.113-4.165-5.133-6.441-10.315-4.892c3.778-5.134,11.381-14.238,23.585-15.789c0.436-0.048,0.872-0.048,1.26-0.048  c-1.163,0.484-2.277,1.065-3.342,1.792C14.67,17.193,10.65,24.361,10.118,31.916L10.118,31.916z"
     id="path3680" /><path
     d="M69.596,35.948v4.032c0,1.52-0.028,2.77-0.114,4.047l0.028,0.015c0.483-0.994,1.08-2.03,1.775-3.166l3.096-4.928h1.235  v9.569h-1.165v-4.074c0-1.549,0.015-2.687,0.114-3.893l-0.042-0.014c-0.469,1.051-1.122,2.156-1.775,3.223l-2.996,4.758h-1.321  v-9.569H69.596z M78.938,38.646v2.769h3.266v-2.769h1.235v6.871h-1.235v-3.108h-3.266v3.108h-1.235v-6.871H78.938z M86.689,38.646  v2.769h3.266v-2.769h1.235v6.871h-1.235v-3.108h-3.266v3.108h-1.235v-6.871H86.689z M99.452,42.025c0,2.541-1.761,3.647-3.422,3.647  c-1.86,0-3.294-1.362-3.294-3.534c0-2.302,1.505-3.649,3.408-3.649C98.117,38.489,99.452,39.924,99.452,42.025z M94,42.096  c0,1.506,0.866,2.644,2.087,2.644c1.193,0,2.087-1.122,2.087-2.671c0-1.164-0.583-2.642-2.059-2.642  C94.639,39.427,94,40.79,94,42.096z M100.999,38.73c0.483-0.084,1.377-0.155,2.187-0.155c1.149,0,3.053,0.184,3.053,1.718  c0,0.854-0.653,1.378-1.435,1.548v0.029c1.008,0.141,1.747,0.709,1.747,1.703c0,1.803-2.272,2.03-3.621,2.03  c-0.767,0-1.562-0.059-1.931-0.086V38.73z M102.177,44.695c0.355,0.041,0.611,0.057,1.009,0.057c0.837,0,2.087-0.199,2.087-1.193  s-0.994-1.207-2.187-1.207h-0.909V44.695z M102.191,41.527h0.937c0.923,0,1.875-0.271,1.875-1.078c0-0.682-0.597-1.008-1.846-1.008  c-0.412,0-0.667,0.026-0.965,0.057L102.191,41.527L102.191,41.527z M111.931,45.52l-0.099-0.867h-0.043  c-0.383,0.541-1.122,1.022-2.102,1.022c-1.392,0-2.102-0.979-2.102-1.974c0-1.662,1.477-2.57,4.132-2.557v-0.144  c0-0.565-0.156-1.59-1.562-1.59c-0.639,0-1.306,0.196-1.789,0.511l-0.284-0.822c0.568-0.369,1.392-0.61,2.258-0.61  c2.101,0,2.612,1.435,2.612,2.812v2.57c0,0.597,0.028,1.179,0.114,1.646h-1.135V45.52z M111.747,42.011  c-1.363-0.028-2.911,0.214-2.911,1.548c0,0.812,0.54,1.193,1.179,1.193c0.895,0,1.462-0.568,1.661-1.15  c0.042-0.127,0.071-0.271,0.071-0.396V42.011z M116.175,38.646v5.893h3.167v-5.893h1.235v5.935l0.71,0.015l-0.071,3.11h-0.966  l-0.057-2.188h-5.253v-6.871H116.175L116.175,38.646z M123.927,38.646v2.896c0,1.095-0.015,1.774-0.071,2.755l0.043,0.016  c0.412-0.838,0.652-1.319,1.106-2.114l2.146-3.552h1.461v6.873h-1.189v-2.912c0-1.121,0.028-1.703,0.085-2.812h-0.043  c-0.438,0.881-0.737,1.435-1.137,2.13c-0.652,1.065-1.405,2.387-2.146,3.594h-1.435v-6.873H123.927L123.927,38.646z M136.861,42.025  c0,2.541-1.762,3.647-3.424,3.647c-1.859,0-3.295-1.362-3.295-3.534c0-2.302,1.506-3.649,3.408-3.649  C135.525,38.489,136.861,39.924,136.861,42.025z M131.408,42.096c0,1.506,0.865,2.644,2.087,2.644c1.192,0,2.088-1.122,2.088-2.671  c0-1.164-0.583-2.642-2.06-2.642C132.046,39.427,131.408,40.79,131.408,42.096z M139.643,38.646v2.769h3.267v-2.769h1.233v6.871  h-1.233v-3.108h-3.267v3.108h-1.234v-6.871H139.643z M147.395,38.646v2.769h3.267v-2.769h1.233v6.871h-1.233v-3.108h-3.267v3.108  h-1.235v-6.871H147.395z M155.145,38.646v2.342c0.271-0.057,0.666-0.084,1.121-0.084c1.479,0,2.969,0.609,2.969,2.3  c0,0.726-0.271,1.222-0.711,1.59c-0.752,0.64-1.859,0.795-2.77,0.795c-0.695,0-1.334-0.042-1.846-0.099v-6.844H155.145z   M155.145,44.652c0.24,0.027,0.512,0.057,0.865,0.057c0.952,0,1.988-0.396,1.988-1.463c0-1.105-0.994-1.448-1.932-1.448  c-0.354,0-0.668,0.028-0.922,0.072V44.652L155.145,44.652z M161.335,38.646v6.871H160.1v-6.871H161.335z M164.073,42.311  c0.028,1.688,1.105,2.385,2.355,2.385c0.896,0,1.435-0.154,1.901-0.354l0.214,0.896c-0.438,0.199-1.19,0.427-2.286,0.427  c-2.113,0-3.38-1.394-3.38-3.465c0-2.073,1.224-3.707,3.226-3.707c2.241,0,2.84,1.975,2.84,3.237c0,0.256-0.028,0.455-0.043,0.582  h-4.827V42.311z M167.736,41.415c0.015-0.795-0.326-2.03-1.732-2.03c-1.264,0-1.816,1.163-1.916,2.03H167.736z M173.5,40.891  c0-0.882-0.027-1.592-0.057-2.244h1.121l0.058,1.181h0.028c0.511-0.841,1.318-1.336,2.44-1.336c1.661,0,2.91,1.405,2.91,3.491  c0,2.474-1.505,3.692-3.123,3.692c-0.909,0-1.704-0.397-2.116-1.079h-0.025v3.734H173.5V40.891z M174.736,42.723  c0,0.186,0.025,0.354,0.056,0.51c0.228,0.867,0.979,1.463,1.874,1.463c1.32,0,2.088-1.078,2.088-2.654  c0-1.377-0.725-2.557-2.045-2.557c-0.852,0-1.646,0.611-1.889,1.549c-0.043,0.154-0.084,0.342-0.084,0.511V42.723z M185.382,45.52  l-0.099-0.867h-0.043c-0.385,0.541-1.121,1.022-2.103,1.022c-1.393,0-2.103-0.979-2.103-1.974c0-1.662,1.478-2.57,4.133-2.557  v-0.144c0-0.565-0.156-1.59-1.563-1.59c-0.64,0-1.308,0.196-1.789,0.511l-0.283-0.822c0.566-0.369,1.392-0.61,2.258-0.61  c2.104,0,2.611,1.435,2.611,2.812v2.57c0,0.597,0.029,1.179,0.115,1.646h-1.137L185.382,45.52L185.382,45.52z M185.198,42.011  c-1.364-0.028-2.911,0.214-2.911,1.548c0,0.812,0.539,1.193,1.179,1.193c0.894,0,1.463-0.568,1.66-1.15  c0.044-0.127,0.072-0.271,0.072-0.396V42.011z M188.988,41.527h0.596c1.051,0,1.761-0.482,1.761-1.12  c0-0.611-0.554-0.994-1.334-0.994c-0.554,0-1.18,0.185-1.661,0.481l-0.313-0.768c0.695-0.426,1.49-0.625,2.286-0.625  c1.051,0,2.327,0.471,2.327,1.805c0,0.853-0.779,1.404-1.547,1.563v0.027c1.021,0.084,1.873,0.709,1.873,1.718  c0,1.491-1.52,2.046-2.967,2.046c-0.81,0-1.619-0.213-2.229-0.555l0.326-0.838c0.496,0.271,1.164,0.469,1.815,0.469  c1.036,0,1.689-0.497,1.689-1.18c0-0.923-0.968-1.179-2.003-1.179h-0.625v-0.853h0.004V41.527z M194.538,40.891  c0-0.882-0.028-1.592-0.058-2.244h1.123l0.058,1.181h0.028c0.511-0.841,1.318-1.336,2.44-1.336c1.661,0,2.91,1.405,2.91,3.491  c0,2.474-1.505,3.692-3.123,3.692c-0.909,0-1.704-0.397-2.117-1.079h-0.026v3.734h-1.235V40.891z M195.773,42.723  c0,0.186,0.026,0.354,0.057,0.51c0.229,0.867,0.98,1.463,1.875,1.463c1.32,0,2.088-1.078,2.088-2.654  c0-1.377-0.725-2.557-2.045-2.557c-0.852,0-1.646,0.611-1.889,1.549c-0.043,0.154-0.086,0.342-0.086,0.511V42.723z M206.422,45.52  l-0.099-0.867h-0.043c-0.384,0.541-1.122,1.022-2.104,1.022c-1.392,0-2.102-0.979-2.102-1.974c0-1.662,1.477-2.57,4.132-2.557  v-0.144c0-0.565-0.155-1.59-1.563-1.59c-0.64,0-1.308,0.196-1.789,0.511l-0.283-0.822c0.566-0.369,1.391-0.61,2.258-0.61  c2.104,0,2.611,1.435,2.611,2.812v2.57c0,0.597,0.027,1.179,0.113,1.646h-1.135v0.002H206.422z M206.238,42.011  c-1.364-0.028-2.911,0.214-2.911,1.548c0,0.812,0.539,1.193,1.179,1.193c0.895,0,1.462-0.568,1.66-1.15  c0.043-0.127,0.072-0.271,0.072-0.396V42.011z M214.656,36.316c-0.354,0.127-0.979,0.242-1.434,0.313  c-1.107,0.171-1.92,0.539-2.443,1.292c-0.439,0.625-0.694,1.55-0.752,2.271h0.043c0.438-0.993,1.404-1.547,2.386-1.547  c1.688,0,2.924,1.207,2.924,3.394c0,2.244-1.163,3.636-3.18,3.636c-2.414,0-3.21-2.314-3.21-4.602c0-1.563,0.328-2.84,1.066-3.805  c0.666-0.953,1.616-1.394,2.95-1.621c0.556-0.084,1.236-0.196,1.705-0.367L214.656,36.316z M212.2,39.568  c-0.738,0-1.265,0.384-1.548,0.938c-0.229,0.412-0.342,0.909-0.342,1.463c0,1.137,0.555,2.771,1.918,2.771  c1.377,0,1.888-1.335,1.888-2.599C214.116,41.018,213.677,39.568,212.2,39.568z M223.175,42.025c0,2.541-1.762,3.647-3.422,3.647  c-1.86,0-3.295-1.362-3.295-3.534c0-2.302,1.505-3.649,3.408-3.649C221.84,38.489,223.175,39.924,223.175,42.025z M217.723,42.096  c0,1.506,0.865,2.644,2.088,2.644c1.191,0,2.086-1.122,2.086-2.671c0-1.164-0.582-2.642-2.059-2.642  C218.359,39.427,217.723,40.79,217.723,42.096z M229.277,38.646v0.992h-2.145v5.879h-1.234v-5.877h-2.146v-0.994H229.277  L229.277,38.646z M231.605,38.646v2.979h0.299l2.584-2.979h1.52l-2.996,3.107c1.107,0.114,1.775,0.854,2.314,2.087  c0.186,0.454,0.426,1.122,0.738,1.677h-1.308c-0.185-0.297-0.427-0.838-0.64-1.406c-0.471-1.106-1.107-1.617-2.271-1.617h-0.242  v3.023h-1.234v-6.871H231.605z M238.322,38.646v2.896c0,1.095-0.016,1.774-0.072,2.755l0.043,0.016  c0.412-0.838,0.653-1.319,1.107-2.114l2.145-3.552h1.462v6.873h-1.192v-2.912c0-1.121,0.029-1.703,0.086-2.812h-0.043  c-0.438,0.881-0.736,1.435-1.137,2.13c-0.652,1.065-1.404,2.387-2.144,3.594h-1.435v-6.873H238.322L238.322,38.646z"
     id="path3682" /><path
     fill="#3A99FF"
     d="M80.542,12.186l-2.552,2.729c-1.324-0.792-2.292-1.144-2.909-1.144c-0.44,0-0.879,0.175-1.145,0.528  c-0.353,0.355-0.528,0.705-0.528,1.233c0,0.968,0.881,1.765,2.553,2.38c1.236,0.528,2.206,0.969,2.82,1.41  c0.617,0.441,1.146,1.059,1.585,1.764c0.442,0.796,0.615,1.586,0.615,2.469c0,1.583-0.615,2.996-1.938,4.227  c-1.32,1.232-2.818,1.762-4.67,1.762c-1.938,0-3.876-0.877-5.814-2.732l2.644-3.083c1.233,1.234,2.291,1.852,3.349,1.852  c0.529,0,0.969-0.178,1.41-0.617c0.442-0.439,0.705-0.881,0.705-1.322c0-0.968-1.059-1.849-3.087-2.645  c-1.143-0.438-2.026-0.881-2.552-1.234c-0.528-0.354-0.97-0.969-1.234-1.673c-0.354-0.705-0.53-1.499-0.53-2.205  c0-1.676,0.53-2.997,1.676-4.052c1.057-1.059,2.553-1.583,4.317-1.583C77.371,10.246,79.043,10.863,80.542,12.186L80.542,12.186z   M83.273,19.94L83.273,19.94c0-2.819,0.883-5.113,2.732-6.874c1.851-1.849,4.053-2.732,6.521-2.732c2.82,0,5.111,0.883,6.962,2.732  c1.85,1.849,2.731,4.141,2.731,6.874c0,2.732-0.881,5.023-2.731,6.875c-1.851,1.853-4.056,2.73-6.874,2.73  c-2.732,0-5.022-0.877-6.785-2.73C84.156,25.051,83.273,22.673,83.273,19.94L83.273,19.94z M92.791,14.036L92.791,14.036  c-1.587,0-2.819,0.528-3.79,1.675c-0.969,1.147-1.498,2.554-1.498,4.319c0,1.674,0.529,3.084,1.498,4.141  c0.968,1.147,2.203,1.676,3.704,1.676c1.582,0,2.817-0.529,3.876-1.676c0.97-1.057,1.498-2.554,1.498-4.319  c0-1.76-0.44-3.17-1.41-4.228C95.698,14.653,94.377,14.036,92.791,14.036L92.791,14.036z M105.744,10.513L105.744,10.513h4.052  v14.802h5.554v4.055h-9.606V10.513L105.744,10.513z M124.777,10.513L124.777,10.513h3.172l7.667,18.856h-4.054l-1.499-3.701h-7.226  l-1.5,3.701h-4.051L124.777,10.513L124.777,10.513z M126.363,16.68L126.363,16.68l-2.202,5.551h4.493L126.363,16.68L126.363,16.68z   M138.435,10.513L138.435,10.513h6.257c1.851,0,3.35,0.526,4.496,1.498c1.056,0.968,1.672,2.379,1.672,4.052  c0,0.968-0.264,1.94-0.793,3c-0.531,1.057-1.41,1.849-2.819,2.466l5.286,7.845h-4.671l-4.935-7.317h-0.442v7.317h-4.054  L138.435,10.513L138.435,10.513z M142.488,13.859L142.488,13.859v4.937h0.881c2.115,0,3.259-0.881,3.259-2.556  c0-0.705-0.263-1.233-0.877-1.675c-0.53-0.44-1.324-0.616-2.292-0.616h-0.971V13.859z M170.778,14.564L170.778,14.564l-2.733,2.556  c-0.529-0.969-1.234-1.673-2.115-2.201c-0.792-0.53-1.673-0.705-2.645-0.705c-1.496,0-2.73,0.528-3.877,1.673  c-1.057,1.147-1.674,2.467-1.674,3.964c0,1.589,0.53,3,1.674,4.144c1.059,1.144,2.381,1.673,3.968,1.673  c0.795,0,1.673-0.175,2.378-0.614c0.797-0.442,1.41-1.234,1.85-2.379h-4.494v-3.704h8.725v2.47c0,1.234-0.439,2.642-1.322,4.052  c-0.881,1.41-2.027,2.466-3.436,3.171c-1.41,0.705-2.819,0.969-4.23,0.969c-2.645,0-4.76-0.969-6.609-2.818  c-1.761-1.848-2.645-4.227-2.645-6.963c0-2.642,0.881-4.845,2.732-6.784c1.85-1.847,4.056-2.819,6.698-2.819  C166.372,10.246,168.926,11.656,170.778,14.564L170.778,14.564z M174.918,10.513L174.918,10.513h6.255  c1.853,0,3.35,0.526,4.497,1.498c1.056,0.968,1.672,2.379,1.672,4.052c0,0.968-0.266,1.94-0.795,3  c-0.527,1.057-1.409,1.849-2.817,2.466l5.287,7.845h-4.673l-4.936-7.317h-0.438v7.317h-4.056L174.918,10.513L174.918,10.513z   M178.974,13.859L178.974,13.859v4.937h0.879c2.112,0,3.259-0.881,3.259-2.556c0-0.705-0.263-1.233-0.879-1.675  c-0.531-0.44-1.322-0.616-2.291-0.616h-0.968V13.859L178.974,13.859z M190.251,19.94L190.251,19.94c0-2.819,0.877-5.113,2.729-6.874  c1.854-1.849,4.056-2.732,6.521-2.732c2.821,0,5.111,0.883,6.965,2.732c1.846,1.849,2.728,4.141,2.728,6.874  c0,2.732-0.88,5.023-2.728,6.875c-1.854,1.853-4.057,2.73-6.877,2.73c-2.732,0-5.021-0.877-6.784-2.73  C191.219,25.051,190.251,22.673,190.251,19.94L190.251,19.94z M199.768,14.036L199.768,14.036c-1.588,0-2.818,0.528-3.791,1.675  c-0.968,1.145-1.495,2.554-1.495,4.319c0,1.674,0.527,3.084,1.495,4.141c0.973,1.147,2.203,1.676,3.704,1.676  c1.583,0,2.817-0.529,3.88-1.676c0.969-1.057,1.498-2.554,1.498-4.319c0-1.76-0.441-3.17-1.41-4.228  C202.674,14.653,201.354,14.036,199.768,14.036L199.768,14.036z M212.634,10.513L212.634,10.513h3.966v11.543  c0,1.059,0.267,1.936,0.878,2.554c0.618,0.617,1.409,0.967,2.378,0.967c1.147,0,1.94-0.35,2.559-0.967  c0.615-0.618,0.881-1.586,0.881-2.73V10.513h3.967v12.245c0,1.063-0.267,2.203-0.795,3.35c-0.527,1.145-1.412,2.028-2.556,2.643  c-1.146,0.617-2.466,0.879-3.877,0.879c-2.554,0-4.49-0.704-5.641-2.202c-1.234-1.41-1.763-2.997-1.763-4.582V10.51h0.003V10.513z   M231.4,10.513L231.4,10.513h6.434c1.762,0,3.172,0.526,4.229,1.498c1.055,0.968,1.585,2.379,1.585,3.966  c0,1.061-0.266,2.115-0.797,3.085c-0.528,0.968-1.322,1.674-2.378,2.204c-1.06,0.439-1.937,0.705-2.733,0.705l-2.378,0.088v7.227  h-4.052V10.513H231.4z M235.453,13.859L235.453,13.859v4.848h1.586c0.705,0,1.235-0.265,1.764-0.705  c0.439-0.53,0.703-1.059,0.703-1.762c0-0.793-0.264-1.321-0.794-1.764c-0.528-0.44-1.322-0.617-2.29-0.617H235.453L235.453,13.859z"
     id="path3684" /><path
     style="fill:#ffffff;stroke-width:0.18988326"
     d="M 43.957977,53.478615 C 39.353736,52.712132 35.485991,51.550239 32.048292,49.900878 27.593876,47.76371 24.858037,45.605947 21.392244,41.496423 c -0.421696,-0.500021 -0.125624,-0.614312 0.48087,-0.185628 0.991674,0.700939 3.696496,1.964309 5.391107,2.518082 2.722223,0.889581 4.702432,1.192555 7.769242,1.188701 3.634595,-0.0046 6.27719,-0.550317 9.931233,-2.051004 0.265527,-0.10905 0.217188,0.04557 -0.215903,0.690583 -0.794625,1.183457 -1.17153,2.453419 -1.164383,3.923331 0.0091,1.871117 0.736944,3.689397 2.201617,5.499979 l 0.49922,0.617121 -0.641456,-0.02256 c -0.352802,-0.01241 -1.111417,-0.100793 -1.685814,-0.196415 z"
     id="path3693"
     inkscape:connector-curvature="0" /><path
     style="fill:#ffffff;stroke-width:0.18988326"
     d=""
     id="path3695"
     inkscape:connector-curvature="0" /><path
     style="fill:#ffffff;stroke-width:0.18988326"
     d="m 39.115953,41.886343 c 3.163759,-1.764167 6.742726,-4.994057 8.583974,-7.746732 1.904471,-2.847193 3.416825,-6.564776 3.862332,-9.494164 0.3164,-2.080459 0.342072,-2.112013 0.874021,-1.074267 0.64216,1.25275 1.855754,2.418525 3.209861,3.083382 1.074021,0.527337 1.250719,0.55431 3.631297,0.55431 h 2.50234 l -0.49603,0.664591 c -2.159252,2.893014 -5.879995,6.687223 -8.496199,8.663956 -4.23913,3.202971 -9.628621,5.521951 -13.671596,5.882589 l -1.139299,0.101628 z"
     id="path3697"
     inkscape:connector-curvature="0" /><path
     style="fill:#ffffff;stroke-width:0.18988326"
     d=""
     id="path3699"
     inkscape:connector-curvature="0" /><path
     style="fill:#ffffff;stroke-width:0.18988326"
     d="m 43.783084,45.611725 c 0.0091,-0.221203 0.05411,-0.266197 0.114721,-0.114721 0.05485,0.137072 0.04811,0.300846 -0.01499,0.363943 -0.0631,0.0631 -0.107976,-0.04905 -0.09973,-0.249222 z"
     id="path3701"
     inkscape:connector-curvature="0" /><path
     style="fill:#ffffff;stroke-width:0.18988326"
     d="M 47.953311,26.639222 C 47.942659,23.492613 47.600758,21.307609 46.691745,18.576877 45.411777,14.731774 43.227906,11.329848 40.252329,8.5458735 l -1.618159,-1.5139623 1.759958,-0.08297 c 1.431832,-0.067501 1.94451,-0.1778923 2.749835,-0.5921004 1.7985,-0.925034 3.182387,-2.5144971 4.017277,-4.6140448 l 0.368901,-0.92769842 0.226182,0.56964982 c 0.549185,1.3831515 1.583508,4.7142173 2.004697,6.4561832 1.105535,4.5723024 1.350235,9.7828694 0.651396,13.8706364 -0.386643,2.26162 -1.382562,5.563515 -2.072084,6.869844 l -0.378023,0.716177 z"
     id="path3703"
     inkscape:connector-curvature="0" /><path
     style="fill:#ffffff;stroke-width:0.18988326"
     d="M 40.076791,12.558823 C 39.10813,11.900601 36.186774,10.53297 34.653696,10.020004 29.907822,8.432042 23.811127,8.4932676 19.042938,10.176774 c -0.865522,0.305591 -1.74194,0.626277 -1.947595,0.712636 -0.34907,0.146582 -0.345081,0.113595 0.06003,-0.496391 1.938641,-2.9190875 1.66564,-6.2391564 -0.765982,-9.3153887 L 15.623857,0.10915985 16.6415,0.2379145 c 8.819641,1.1158816 16.19347,4.2988485 21.300443,9.1944911 1.089155,1.0440844 3.065358,3.4161164 2.945728,3.5357484 -0.0464,0.0464 -0.411291,-0.137804 -0.81088,-0.409331 z"
     id="path3705"
     inkscape:connector-curvature="0" /><path
     style="fill:#ffffff;stroke-width:0.18988326"
     d="M 9.7104534,30.615734 C 9.1748692,29.320814 7.8491946,27.975497 6.4111581,27.267554 5.3171202,26.728961 4.9235744,26.640667 3.3320684,26.576744 c -1.0036009,-0.04031 -2.1425184,0.01445 -2.53092784,0.1217 -0.38840941,0.107245 -0.70619893,0.147558 -0.70619893,0.08958 0,-0.05797 0.62687744,-0.884198 1.39306097,-1.836056 5.909196,-7.341205 12.6057434,-11.813996 19.9133304,-13.300609 2.561353,-0.521066 2.695619,-0.421529 0.892787,0.661859 -2.267039,1.362349 -4.142515,2.84578 -5.682006,4.494251 -3.282456,3.514822 -5.633304,8.383285 -6.324142,13.096909 l -0.228082,1.556211 z"
     id="path3707"
     inkscape:connector-curvature="0" /><path
     style="fill:#ffffff;stroke-width:0.18988326"
     d="m 14.705642,51.941167 c -3.301207,-8.511792 -4.023,-15.648245 -2.270238,-22.446133 0.29972,-1.162431 0.750527,-2.579595 1.001792,-3.149253 l 0.456847,-1.035742 0.107323,2.563424 c 0.206361,4.928954 1.49436,8.999393 4.07873,12.889935 1.171164,1.763084 3.711979,4.523156 5.22141,5.671986 l 0.934475,0.711231 -1.674411,0.113191 c -2.09501,0.141626 -3.190906,0.629418 -4.632745,2.062072 -1.008326,1.001902 -2.263455,3.153813 -2.263455,3.880678 0,0.715562 -0.393649,0.198181 -0.959728,-1.261389 z"
     id="path3709"
     inkscape:connector-curvature="0" /><path
     style="fill:#ffffff;stroke-width:0.18988326"
     d=""
     id="path3711"
     inkscape:connector-curvature="0" /><path
     style="fill:#ffffff;stroke-width:0.18988326"
     d="m 72.018271,29.034897 c -0.493298,-0.198754 -1.460255,-0.76337 -2.148793,-1.2547 -1.114906,-0.795581 -1.223095,-0.927656 -0.988744,-1.207036 0.144729,-0.172538 0.717096,-0.845995 1.271926,-1.49657 l 1.008781,-1.182863 0.686984,0.539726 c 1.660471,1.304543 2.983847,1.520965 4.011719,0.656067 0.824655,-0.693902 1.009934,-1.256593 0.676515,-2.054577 -0.330276,-0.790461 -1.21376,-1.386577 -3.416795,-2.305426 -2.720204,-1.134552 -3.722695,-2.508661 -3.713359,-5.089881 0.0052,-1.430462 0.492368,-2.572218 1.566317,-3.670714 1.061119,-1.085371 2.374909,-1.564721 4.288553,-1.564721 1.739274,0 3.004567,0.337052 4.263806,1.135802 l 0.913508,0.579449 -1.184941,1.333271 c -0.651717,0.733298 -1.276414,1.292118 -1.388216,1.241822 -1.713145,-0.770695 -2.682648,-1.076936 -3.087615,-0.975295 -0.757656,0.190159 -1.388034,1.008667 -1.388034,1.802278 0,0.97554 0.784873,1.657738 3.228016,2.805739 2.412219,1.13347 3.054324,1.652941 3.716758,3.006907 1.324563,2.707311 0.04045,5.937746 -2.985819,7.51142 -1.169067,0.607921 -4.038654,0.709826 -5.330567,0.189302 z"
     id="path3713"
     inkscape:connector-curvature="0" /><path
     style="fill:#ffffff;stroke-width:0.18988326"
     d="m 90.051366,29.186378 c -0.874005,-0.205987 -2.480845,-1.006472 -3.356563,-1.672151 -0.923188,-0.701762 -2.197126,-2.499459 -2.67552,-3.775517 -0.536627,-1.431385 -0.735861,-3.3895 -0.53565,-5.264469 0.232405,-2.176453 1.08842,-3.848364 2.794266,-5.457573 2.462954,-2.323425 5.187232,-3.0608982 8.620025,-2.333474 3.397822,0.720013 6.270876,3.573231 6.994186,6.945885 0.32733,1.526276 0.12557,4.616677 -0.38771,5.938634 -0.9623,2.478448 -3.295644,4.656727 -5.825105,5.437998 -1.344641,0.415318 -4.238184,0.508205 -5.627929,0.180667 z m 5.13076,-3.896245 c 1.865783,-0.906382 2.892582,-2.854035 2.892582,-5.486709 0,-1.992657 -0.419395,-3.190786 -1.492559,-4.26395 -2.244733,-2.244734 -5.992655,-2.027731 -7.84768,0.454377 -2.569214,3.437725 -1.041794,8.811668 2.789266,9.813512 0.919889,0.240555 2.582314,0.0055 3.658391,-0.51723 z"
     id="path3715"
     inkscape:connector-curvature="0" /><path
     style="fill:#ffffff;stroke-width:0.18988326"
     d="m 105.85992,19.898366 v -9.30428 h 1.89883 1.89884 v 7.405447 7.405448 h 2.84825 2.84825 v 1.898832 1.898833 h -4.74709 -4.74708 z"
     id="path3717"
     inkscape:connector-curvature="0" /><path
     style="fill:#ffffff;stroke-width:0.18988326"
     d="m 117.64866,28.680467 c 0.10236,-0.287199 1.75071,-4.452763 3.663,-9.256809 l 3.4769,-8.734631 h 1.57816 1.57816 l 3.66779,9.019455 c 2.01729,4.960701 3.71039,9.126265 3.76246,9.25681 0.072,0.180648 -0.37259,0.237354 -1.8611,0.237354 h -1.95577 l -0.71396,-1.803891 -0.71397,-1.803891 h -3.66404 -3.66403 l -0.73343,1.801238 -0.73342,1.801239 -1.93643,0.0027 -1.93642,0.0027 z m 10.99941,-6.456031 c 0.004,-0.238502 -2.17902,-5.55047 -2.28075,-5.55076 -0.0746,-2.14e-4 -1.55236,3.605256 -2.19718,5.360877 -0.11199,0.304895 0.0675,0.332295 2.17686,0.332295 1.2644,0 2.29989,-0.06409 2.30107,-0.142412 z"
     id="path3719"
     inkscape:connector-curvature="0" /><path
     style="fill:#ffffff;stroke-width:0.18988326"
     d="M 138.51984,19.976989 V 10.56145 l 4.03978,0.06379 4.03978,0.06379 1.2554,0.618408 c 1.99875,0.984582 2.85977,2.407799 2.85977,4.72704 0,2.205806 -1.07561,4.164348 -2.76378,5.032475 -0.4003,0.205849 -0.68752,0.475728 -0.63826,0.599731 0.0493,0.124002 1.21347,1.891685 2.58715,3.928183 l 2.4976,3.702724 -2.11699,0.05388 c -1.16434,0.02963 -2.21466,-0.02748 -2.33405,-0.126927 -0.11938,-0.09944 -1.28515,-1.769233 -2.5906,-3.710642 -1.52932,-2.274354 -2.47484,-3.511539 -2.65836,-3.478395 -0.23938,0.04323 -0.29306,0.634268 -0.3364,3.704233 l -0.0516,3.652793 h -1.89473 -1.89474 z m 6.83625,-1.50547 c 0.81344,-0.416381 1.18972,-0.990883 1.28269,-1.958372 0.0793,-0.825262 0.0263,-0.991395 -0.512,-1.604462 -0.64207,-0.731274 -2.00414,-1.189306 -3.14468,-1.057482 l -0.56965,0.06584 -0.0538,2.267545 c -0.0296,1.247149 -0.008,2.387658 0.0486,2.534464 0.0809,0.210721 0.35206,0.238367 1.28806,0.131305 0.65209,-0.07459 1.39944,-0.245066 1.66078,-0.378838 z"
     id="path3721"
     inkscape:connector-curvature="0" /><path
     style="fill:#ffffff;stroke-width:0.18988326"
     d="m 160.53089,29.234305 c -4.09597,-1.06923 -6.82038,-4.798487 -6.82038,-9.335939 0,-3.823664 2.02569,-7.057143 5.44348,-8.689083 1.47457,-0.704084 1.50749,-0.710107 3.8608,-0.706347 2.03889,0.0033 2.52998,0.06636 3.48315,0.447536 1.30834,0.523214 2.84114,1.720328 3.61799,2.825643 l 0.55481,0.789409 -1.30131,1.208861 -1.30132,1.208861 -0.58691,-0.769499 c -0.32281,-0.423225 -1.00487,-1.027673 -1.5157,-1.343218 -0.85474,-0.527983 -1.06614,-0.57372 -2.65181,-0.57372 -1.53186,0 -1.82021,0.05713 -2.59893,0.514921 -2.52299,1.483205 -3.65308,4.54477 -2.65413,7.19045 1.03294,2.735724 4.03271,4.314119 6.68462,3.517255 1.16411,-0.3498 1.64538,-0.705219 2.33907,-1.727434 0.81225,-1.196916 0.75959,-1.235269 -1.69599,-1.235269 h -2.18366 v -1.70895 -1.708949 h 4.29391 4.29391 l -0.0727,1.963596 c -0.0674,1.820011 -0.12569,2.070844 -0.79754,3.430246 -1.94321,3.931814 -6.11302,5.818468 -10.39137,4.70163 z"
     id="path3723"
     inkscape:connector-curvature="0" /><path
     style="fill:#ffffff;stroke-width:0.18988326"
     d="m 174.97743,19.993307 v -9.399221 h 3.66826 c 2.71789,0 3.91829,0.07425 4.63333,0.286595 2.48192,0.73705 3.91799,2.561606 3.93239,4.996182 0.0133,2.246569 -1.09409,4.321215 -2.76022,5.171211 -0.40652,0.207392 -0.73913,0.422151 -0.73913,0.477242 0,0.05509 1.13218,1.780847 2.51596,3.835013 1.38377,2.054166 2.54536,3.804533 2.5813,3.889704 0.0359,0.08517 -0.9467,0.130714 -2.18365,0.101206 l -2.24902,-0.05365 -2.42603,-3.607783 c -1.33432,-1.98428 -2.55194,-3.635409 -2.70583,-3.669175 -0.23905,-0.05245 -0.27981,0.480017 -0.27981,3.655252 v 3.716647 h -1.99377 -1.99378 z m 6.8665,-1.537434 c 1.53074,-0.784029 1.77361,-2.827693 0.4636,-3.900839 -0.47488,-0.389017 -1.72637,-0.732933 -2.6671,-0.732933 h -0.67545 v 2.582068 2.582069 l 1.18677,-0.135748 c 0.65272,-0.07466 1.41421,-0.252239 1.69218,-0.394617 z"
     id="path3725"
     inkscape:connector-curvature="0" /><path
     style="fill:#ffffff;stroke-width:0.18988326"
     d="m 196.58571,29.025902 c -1.57016,-0.502042 -2.62515,-1.182188 -3.76509,-2.427343 -2.62543,-2.867754 -3.22842,-7.43202 -1.48004,-11.203049 0.61571,-1.328014 2.70913,-3.353767 4.17437,-4.039434 5.60247,-2.6217139 12.11105,0.496731 13.36248,6.402342 0.3457,1.63141 0.34369,2.657832 -0.008,4.320293 -0.40994,1.935271 -1.12613,3.248417 -2.54695,4.669872 -1.28573,1.286306 -2.66429,2.085643 -4.21251,2.442567 -1.36506,0.314696 -4.29709,0.226983 -5.52381,-0.165248 z m 5.49542,-3.643523 c 1.06596,-0.515154 2.22661,-1.863448 2.64969,-3.078093 0.53631,-1.539678 0.46379,-3.925924 -0.16019,-5.271361 -1.05617,-2.277319 -3.20761,-3.347581 -5.91359,-2.941795 -1.6816,0.252172 -3.29761,1.814659 -3.94409,3.813461 -0.3219,0.995223 -0.3316,3.008667 -0.0197,4.082491 0.93593,3.222112 4.42667,4.826373 7.38787,3.395297 z"
     id="path3727"
     inkscape:connector-curvature="0" /><path
     style="fill:#ffffff;stroke-width:0.18988326"
     d="m 217.89105,29.33241 c -2.11602,-0.493106 -3.41902,-1.529637 -4.49785,-3.578004 l -0.53406,-1.014017 -0.0561,-7.073152 -0.0561,-7.073151 h 1.90747 1.90748 v 6.284921 c 0,7.003329 0.0215,7.139153 1.28375,8.101907 0.9968,0.760295 2.76604,0.836116 3.90705,0.167439 1.51779,-0.889485 1.5418,-1.012598 1.60703,-8.240649 l 0.057,-6.313618 h 1.90016 1.90017 l -0.0603,6.883268 c -0.0589,6.719688 -0.071,6.910344 -0.50973,8.022568 -0.60059,1.522591 -2.02899,2.933396 -3.54381,3.500163 -1.37875,0.515857 -3.7702,0.668337 -5.21209,0.332325 z"
     id="path3729"
     inkscape:connector-curvature="0" /><path
     style="fill:#ffffff;stroke-width:0.18988326"
     d="M 199.6543 10.542969 C 198.69202 10.536534 197.72351 10.673045 196.78516 10.964844 C 194.79277 11.584416 192.41849 13.536584 191.52344 15.291016 C 188.54521 21.128844 192.02147 28.565937 198.02539 29.199219 C 201.57581 29.573712 203.84295 28.904012 206.0957 26.818359 C 208.15448 24.912296 209.09485 22.388582 208.91797 19.234375 C 208.8 17.130694 208.29896 15.734739 207.0957 14.150391 C 205.36413 11.870415 202.54114 10.562274 199.6543 10.542969 z M 231.37305 10.59375 L 231.37305 19.898438 L 231.37305 29.203125 L 233.36719 29.203125 L 235.35938 29.203125 L 235.35938 25.623047 L 235.35938 22.042969 L 237.02148 21.935547 C 239.33243 21.785625 240.71044 21.245816 241.91797 20.015625 C 243.12605 18.784879 243.60072 17.440973 243.49414 15.554688 C 243.40292 13.940466 242.76448 12.633867 241.6543 11.787109 C 240.31587 10.766253 239.37499 10.59375 235.13672 10.59375 L 231.37305 10.59375 z M 235.35938 13.822266 L 236.41016 13.822266 C 238.3406 13.822266 239.53711 14.70644 239.53711 16.134766 C 239.53711 17.100646 239.10079 17.92394 238.3418 18.386719 C 237.91057 18.649661 237.38876 18.757299 236.54688 18.757812 L 235.35938 18.759766 L 235.35938 16.291016 L 235.35938 13.822266 z M 199.67188 14.011719 C 201.5642 14.011719 202.94872 14.611543 203.86523 15.828125 C 204.2176 16.295863 204.16425 16.272694 203.53906 15.683594 C 202.42906 14.637668 201.33266 14.210938 199.75781 14.210938 C 197.55687 14.210938 196.12173 15.149708 195.13086 17.240234 C 194.71043 18.127149 194.63667 18.542826 194.63867 19.994141 C 194.64176 21.970892 194.99568 22.964061 196.15039 24.242188 C 197.03476 25.221083 196.93874 25.267997 196.00781 24.3125 C 194.87055 23.145228 194.45222 21.988131 194.44922 19.994141 C 194.44697 18.551631 194.52292 18.121768 194.93555 17.240234 C 195.97043 15.02933 197.46308 14.011719 199.67188 14.011719 z M 204.27148 16.501953 C 204.2875 16.48594 204.33983 16.526072 204.43359 16.619141 C 204.56336 16.747945 204.621 16.902477 204.5625 16.960938 C 204.50404 17.0194 204.39747 16.913829 204.32617 16.726562 C 204.27465 16.591252 204.25547 16.517966 204.27148 16.501953 z M 204.67188 17.330078 C 204.68509 17.289551 204.7379 17.361768 204.83789 17.525391 C 204.97949 17.75715 205.07127 18.643938 205.07227 19.802734 C 205.07391 21.344786 204.99755 21.86728 204.66797 22.580078 C 204.13859 23.724954 203.01702 24.952864 202.04883 25.447266 C 201.20403 25.878664 199.06696 26.087115 198.42773 25.800781 C 198.17475 25.687461 198.40225 25.663849 199.10742 25.730469 C 201.35806 25.943104 203.3504 24.829089 204.3418 22.802734 C 204.78796 21.890811 204.868 21.483366 204.875 20.101562 C 204.87961 19.206644 204.82064 18.176072 204.74414 17.810547 C 204.68418 17.524208 204.65866 17.370605 204.67188 17.330078 z M 197.0332 25.080078 C 197.04723 25.070932 197.15901 25.123883 197.38281 25.230469 C 197.6439 25.354812 197.894 25.487321 197.9375 25.525391 C 198.19809 25.753376 197.57982 25.541167 197.27734 25.298828 C 197.10357 25.159608 197.01918 25.089225 197.0332 25.080078 z "
     id="path3733" /></svg>